<svg width="96" height="96" viewBox="0 0 96 96" fill="none" xmlns="http://www.w3.org/2000/svg">
<rect width="96" height="96" rx="15" fill="url(#paint0_linear_157_74)"/>
<path d="M57.3417 47.9497L70.1562 36.8163V58.9559L57.3417 47.9497ZM40.8292 49.8351L45.3292 53.7413C46.0354 54.3413 46.9562 54.7038 47.9625 54.7038H47.9979H48.025C49.0333 54.7038 49.9542 54.3393 50.6687 53.7351L50.6625 53.7393L55.1625 49.833L68.8417 61.5809H27.1562L40.8292 49.8351ZM27.1375 34.1768H68.8667L48.8229 51.5851C48.5985 51.7651 48.3189 51.8623 48.0312 51.8601H48.0021H47.975C47.6864 51.8621 47.4059 51.7642 47.1812 51.583L47.1833 51.5851L27.1375 34.1768ZM25.8438 36.8143L38.6562 47.9476L25.8438 58.9476V36.8143ZM70.8438 31.7288C70.3438 31.4788 69.7562 31.333 69.1333 31.333H26.8729C26.2693 31.3354 25.6743 31.4758 25.1333 31.7434L25.1562 31.733C24.5101 32.0528 23.966 32.5464 23.5851 33.1585C23.2042 33.7705 23.0016 34.4767 23 35.1976V60.5559C23.0011 61.5822 23.4093 62.5661 24.135 63.2918C24.8606 64.0175 25.8446 64.4257 26.8708 64.4268H69.1271C70.1534 64.4257 71.1373 64.0175 71.863 63.2918C72.5886 62.5661 72.9968 61.5822 72.9979 60.5559V35.1976C72.9979 33.683 72.125 32.3705 70.8542 31.7393L70.8312 31.7288H70.8438Z" fill="white"/>
<defs>
<linearGradient id="paint0_linear_157_74" x1="48" y1="0" x2="48" y2="96" gradientUnits="userSpaceOnUse">
<stop stop-color="#6CA2EE"/>
<stop offset="1" stop-color="#9A85E1"/>
</linearGradient>
</defs>
</svg>
