<svg width="24" height="24" viewBox="0 0 24 24" fill="none" xmlns="http://www.w3.org/2000/svg">
<path d="M22.75 11.0007H7.925L12.4625 6.64111C12.6747 6.43691 12.7768 6.17365 12.7463 5.90925C12.7158 5.64484 12.5553 5.40095 12.3 5.23123C12.0447 5.06151 11.7156 4.97985 11.3851 5.00423C11.0546 5.02861 10.7497 5.15702 10.5375 5.36122L4.2875 11.3607C4.2446 11.408 4.20695 11.4581 4.175 11.5107C4.175 11.5607 4.175 11.5907 4.0875 11.6407C4.03084 11.7553 4.00118 11.8773 4 12.0006C4.00118 12.1239 4.03084 12.2459 4.0875 12.3606C4.0875 12.4106 4.0875 12.4406 4.175 12.4906C4.20695 12.5431 4.2446 12.5933 4.2875 12.6406L10.5375 18.64C10.655 18.7529 10.8022 18.8437 10.9686 18.9059C11.1349 18.9681 11.3164 19.0002 11.5 19C11.7921 19.0005 12.0751 18.9191 12.3 18.77C12.4266 18.6861 12.5312 18.583 12.6079 18.4666C12.6846 18.3503 12.7318 18.223 12.7469 18.0921C12.762 17.9611 12.7447 17.829 12.6959 17.7034C12.6471 17.5778 12.5678 17.4612 12.4625 17.3601L7.925 13.0005H22.75C23.0815 13.0005 23.3995 12.8952 23.6339 12.7077C23.8683 12.5201 24 12.2658 24 12.0006C24 11.7354 23.8683 11.4811 23.6339 11.2936C23.3995 11.1061 23.0815 11.0007 22.75 11.0007Z" fill="#342D4D"/>
</svg>
