<svg width="62" height="78" viewBox="0 0 62 78" fill="none" xmlns="http://www.w3.org/2000/svg">
<path d="M19 11H11C8.87827 11 6.84344 11.8429 5.34315 13.3431C3.84285 14.8434 3 16.8783 3 19V67C3 69.1217 3.84285 71.1566 5.34315 72.6569C6.84344 74.1571 8.87827 75 11 75H51C53.1217 75 55.1566 74.1571 56.6569 72.6569C58.1571 71.1566 59 69.1217 59 67V19C59 16.8783 58.1571 14.8434 56.6569 13.3431C55.1566 11.8429 53.1217 11 51 11H43M19 11C19 13.1217 19.8429 15.1566 21.3431 16.6569C22.8434 18.1571 24.8783 19 27 19H35C37.1217 19 39.1566 18.1571 40.6569 16.6569C42.1571 15.1566 43 13.1217 43 11M19 11C19 8.87827 19.8429 6.84344 21.3431 5.34315C22.8434 3.84285 24.8783 3 27 3H35C37.1217 3 39.1566 3.84285 40.6569 5.34315C42.1571 6.84344 43 8.87827 43 11M19 47L27 55L43 39" stroke="#9A85E1" stroke-width="6" stroke-linecap="round" stroke-linejoin="round"/>
</svg>
