<svg width="45" height="45" viewBox="0 0 45 45" fill="none" xmlns="http://www.w3.org/2000/svg">
<path fill-rule="evenodd" clip-rule="evenodd" d="M3.75 0C2.75544 0 1.80161 0.395088 1.09835 1.09835C0.395088 1.80161 0 2.75544 0 3.75V41.25C0 42.2446 0.395088 43.1984 1.09835 43.9016C1.80161 44.6049 2.75544 45 3.75 45H41.25C42.2446 45 43.1984 44.6049 43.9016 43.9016C44.6049 43.1984 45 42.2446 45 41.25V3.75C45 2.75544 44.6049 1.80161 43.9016 1.09835C43.1984 0.395088 42.2446 0 41.25 0H3.75ZM32.5 12.5H28.75V32.5H32.5V12.5ZM35 16.25H38.75V21.25H40V23.75H38.75V28.75H35V16.25ZM12.5 32.5H16.25V12.5H12.5V32.5ZM10 28.75H6.25V23.75H5V21.25H6.25V16.25H10V28.75ZM18.75 23.75H26.25V21.25H18.75V23.75Z" fill="white"/>
</svg>
