<svg width="62" height="78" viewBox="0 0 62 78" fill="none" xmlns="http://www.w3.org/2000/svg">
<path d="M47 19C47 23.2435 45.3143 27.3131 42.3137 30.3137C39.3131 33.3143 35.2435 35 31 35C26.7565 35 22.6869 33.3143 19.6863 30.3137C16.6857 27.3131 15 23.2435 15 19C15 14.7565 16.6857 10.6869 19.6863 7.68629C22.6869 4.68571 26.7565 3 31 3C35.2435 3 39.3131 4.68571 42.3137 7.68629C45.3143 10.6869 47 14.7565 47 19ZM31 47C23.5739 47 16.452 49.95 11.201 55.201C5.94999 60.452 3 67.5739 3 75H59C59 67.5739 56.05 60.452 50.799 55.201C45.548 49.95 38.4261 47 31 47Z" stroke="#6CA2EE" stroke-width="6" stroke-linecap="round" stroke-linejoin="round"/>
</svg>
