<svg width="38" height="25" viewBox="0 0 38 25" fill="none" xmlns="http://www.w3.org/2000/svg">
<path d="M16.6667 25C15.5161 25 14.5833 24.0673 14.5833 22.9167C14.5833 21.7661 15.5161 20.8333 16.6667 20.8333H20.8333C21.9839 20.8333 22.9167 21.7661 22.9167 22.9167C22.9167 24.0673 21.9839 25 20.8333 25H16.6667ZM8.33333 14.5833C7.18274 14.5833 6.25 13.6506 6.25 12.5C6.25 11.3494 7.18274 10.4167 8.33333 10.4167H29.1667C30.3173 10.4167 31.25 11.3494 31.25 12.5C31.25 13.6506 30.3173 14.5833 29.1667 14.5833H8.33333ZM2.08333 4.16667C0.932739 4.16667 0 3.23393 0 2.08333C0 0.93274 0.93274 0 2.08333 0H35.4167C36.5673 0 37.5 0.93274 37.5 2.08333C37.5 3.23393 36.5673 4.16667 35.4167 4.16667H2.08333Z" fill="#342D4D" fill-opacity="0.85"/>
</svg>
