<svg width="40" height="43" viewBox="0 0 40 43" fill="none" xmlns="http://www.w3.org/2000/svg">
<path d="M26.5833 41.1969V24.3552C26.5833 23.7969 26.3668 23.2614 25.9813 22.8666C25.5958 22.4718 25.0729 22.25 24.5278 22.25H16.3056C15.7604 22.25 15.2376 22.4718 14.8521 22.8666C14.4666 23.2614 14.25 23.7969 14.25 24.3552V41.1969" stroke="#342D4D" stroke-width="2.5" stroke-linecap="round" stroke-linejoin="round"/>
<path d="M1.25 18.0927C1.24986 17.4802 1.38019 16.8751 1.6319 16.3195C1.88361 15.7639 2.25064 15.2713 2.70739 14.8759L17.0963 2.24467C17.8383 1.60239 18.7785 1.25 19.75 1.25C20.7215 1.25 21.6617 1.60239 22.4037 2.24467L36.7926 14.8759C37.2494 15.2713 37.6164 15.7639 37.8681 16.3195C38.1198 16.8751 38.2501 17.4802 38.25 18.0927V37.0396C38.25 38.1562 37.8169 39.2272 37.0459 40.0168C36.2749 40.8064 35.2292 41.25 34.1389 41.25H5.36111C4.27078 41.25 3.2251 40.8064 2.45412 40.0168C1.68313 39.2272 1.25 38.1562 1.25 37.0396V18.0927Z" stroke="#342D4D" stroke-width="2.5" stroke-linecap="round" stroke-linejoin="round"/>
</svg>
