<svg width="43" height="43" viewBox="0 0 43 43" fill="none" xmlns="http://www.w3.org/2000/svg">
<path d="M21.25 1.25C10.204 1.25 1.25 10.204 1.25 21.25C1.25 32.296 10.204 41.25 21.25 41.25C32.296 41.25 41.25 32.296 41.25 21.25C41.25 10.204 32.296 1.25 21.25 1.25Z" stroke="#342D4D" stroke-width="2.5" stroke-linecap="round" stroke-linejoin="round"/>
<path d="M5.79199 33.942C5.79199 33.942 10.25 28.25 21.25 28.25C32.25 28.25 36.71 33.942 36.71 33.942M21.25 21.25C22.8413 21.25 24.3674 20.6179 25.4926 19.4926C26.6179 18.3674 27.25 16.8413 27.25 15.25C27.25 13.6587 26.6179 12.1326 25.4926 11.0074C24.3674 9.88214 22.8413 9.25 21.25 9.25C19.6587 9.25 18.1326 9.88214 17.0074 11.0074C15.8821 12.1326 15.25 13.6587 15.25 15.25C15.25 16.8413 15.8821 18.3674 17.0074 19.4926C18.1326 20.6179 19.6587 21.25 21.25 21.25Z" stroke="#342D4D" stroke-width="2.5" stroke-linecap="round" stroke-linejoin="round"/>
</svg>
