<svg width="42" height="43" viewBox="0 0 42 43" fill="none" xmlns="http://www.w3.org/2000/svg">
<path d="M9.04306 8.9458C9.67598 9.15865 10.3496 9.23814 11.0177 9.17883C11.6858 9.11953 12.3326 8.92282 12.9136 8.60221C13.4947 8.2816 13.9962 7.84469 14.3838 7.32145C14.7715 6.79821 15.036 6.20104 15.1593 5.57093L15.4003 4.33355C15.7057 2.76541 16.9129 1.49551 18.5035 1.34604C19.8672 1.21788 21.2409 1.21799 22.6046 1.34635C24.1935 1.49591 25.3999 2.76355 25.7068 4.32966L25.95 5.57093C26.0733 6.20104 26.3379 6.79821 26.7255 7.32145C27.1132 7.84469 27.6147 8.2816 28.1958 8.60221C28.7768 8.92282 29.4236 9.11953 30.0917 9.17883C30.7598 9.23814 31.4334 9.15865 32.0663 8.9458L33.5136 8.45946C34.9728 7.96916 36.6127 8.33915 37.5399 9.56786C38.3096 10.5878 38.9767 11.6747 39.5326 12.8141C40.2548 14.2945 39.7159 16.0314 38.4415 17.075L37.4617 17.8773C36.9523 18.2945 36.5433 18.812 36.263 19.3944C35.9826 19.9767 35.8375 20.6101 35.8375 21.2511C35.8375 21.8921 35.9826 22.5255 36.263 23.1079C36.5433 23.6902 36.9523 24.2077 37.4617 24.6249L38.4398 25.4251C39.7151 26.4686 40.2547 28.2061 39.532 29.6871C38.9762 30.8261 38.3091 31.9128 37.5396 32.9325C36.6125 34.161 34.9729 34.5311 33.514 34.0411L32.064 33.5542C31.4311 33.3414 30.7574 33.2619 30.0893 33.3212C29.4212 33.3805 28.7745 33.5772 28.1934 33.8978C27.6124 34.2184 27.1108 34.6553 26.7232 35.1785C26.3356 35.7018 26.071 36.299 25.9477 36.9291L25.7079 38.1645C25.4033 39.7337 24.1957 41.0047 22.6042 41.1541C21.241 41.2821 19.8679 41.282 18.5048 41.1536C16.9159 41.0041 15.7095 39.7364 15.4026 38.1703L15.1593 36.9291C15.036 36.299 14.7715 35.7018 14.3838 35.1785C13.9962 34.6553 13.4947 34.2184 12.9136 33.8978C12.3326 33.5772 11.6858 33.3805 11.0177 33.3212C10.3496 33.2619 9.67598 33.3414 9.04306 33.5542L7.59573 34.0405C6.13662 34.5308 4.49666 34.1608 3.56947 32.9321C2.7998 31.9122 2.13263 30.8253 1.57678 29.6859C0.854536 28.2055 1.39346 26.4686 2.66786 25.425L3.64771 24.6227C4.15673 24.2055 4.5653 23.6881 4.84541 23.106C5.12552 22.5238 5.27054 21.8907 5.27054 21.25C5.27054 20.6093 5.12552 19.9762 4.84541 19.394C4.5653 18.8119 4.15673 18.2945 3.64771 17.8773L2.66742 17.0746C1.39323 16.0312 0.854247 14.2947 1.57603 12.8144C2.13151 11.6752 2.79827 10.5883 3.56751 9.5684C4.49444 8.33938 6.13443 7.96901 7.59371 8.45908L9.04306 8.9458ZM20.5547 14.5847C22.405 14.5847 24.1796 15.2869 25.488 16.5369C26.7964 17.7869 27.5314 19.4822 27.5314 21.25C27.5314 23.0178 26.7964 24.7131 25.488 25.9631C24.1796 27.2131 22.405 27.9153 20.5547 27.9153C18.7043 27.9153 16.9298 27.2131 15.6214 25.9631C14.313 24.7131 13.5779 23.0178 13.5779 21.25C13.5779 19.4822 14.313 17.7869 15.6214 16.5369C16.9298 15.2869 18.7043 14.5847 20.5547 14.5847Z" stroke="#342D4D" stroke-width="2.5" stroke-linecap="round" stroke-linejoin="round"/>
</svg>
