<svg width="40" height="40" viewBox="0 0 40 40" fill="none" xmlns="http://www.w3.org/2000/svg">
<path d="M7.53222 40C6.84187 40 6.28222 39.4404 6.28222 38.75C6.28222 38.0596 6.84187 37.5 7.53222 37.5H32.4678C33.1581 37.5 33.7178 38.0596 33.7178 38.75C33.7178 39.4404 33.1581 40 32.4678 40H7.53222ZM9.5362 32.7897C7.58333 32.7899 5.9158 31.3799 5.59141 29.4541L2.97816 13.9404C2.95662 13.8125 2.8163 13.7378 2.68667 13.7425C2.59333 13.7475 2.50963 13.75 2.43556 13.75C1.73778 13.75 1.15778 13.4833 0.695556 12.95C0.233333 12.4167 0.00148148 11.77 0 11.01C0 10.2217 0.231852 9.55167 0.695556 9C1.15778 8.45 1.73852 8.175 2.43778 8.175C3.13704 8.175 3.73185 8.45 4.22222 9C4.71111 9.55167 4.95556 10.2217 4.95556 11.01C4.95556 11.1833 4.94963 11.3442 4.93778 11.4925C4.91779 11.7427 4.99922 12.0194 5.22796 12.1227L8.7998 13.7353C10.5969 14.5466 12.7172 13.9274 13.7951 12.2764L17.8554 6.05732C18.2308 5.48224 18.0584 4.71106 17.76 4.0925C17.5719 3.70417 17.4778 3.285 17.4778 2.835C17.4778 2.04833 17.723 1.37917 18.2133 0.8275C18.7022 0.275834 19.297 0 19.9978 0C20.697 0 21.2926 0.275 21.7844 0.825C22.2763 1.375 22.5222 2.04167 22.5222 2.825C22.5222 3.29833 22.4282 3.725 22.24 4.105C21.9401 4.71598 21.7671 5.47914 22.139 6.0491L26.2031 12.276C27.2808 13.9272 29.401 14.5468 31.1983 13.7356L34.7832 12.1176C35.018 12.0116 35.1363 11.7482 35.0889 11.495C35.0593 11.335 35.0444 11.1733 35.0444 11.01C35.0444 10.2217 35.2756 9.55167 35.7378 9C36.2 8.45 36.7807 8.175 37.48 8.175C38.1793 8.175 38.7741 8.45 39.2644 9C39.7548 9.55167 40 10.2217 40 11.01C40 11.7667 39.7541 12.4125 39.2622 12.9475C38.7704 13.4825 38.1733 13.75 37.4711 13.75C37.4148 13.75 37.3511 13.74 37.28 13.72C37.1506 13.6836 37.0324 13.7857 37.0102 13.9183L34.4064 29.4492C34.0833 31.3761 32.4155 32.7876 30.4618 32.7878L9.5362 32.7897ZM7.46462 26.9899C7.80393 28.8991 9.46377 30.29 11.4029 30.29H28.5971C30.5362 30.29 32.1961 28.8991 32.5354 26.9899L33.7027 20.4218C34.116 18.0962 31.7578 16.2567 29.6028 17.2237C28.28 17.8173 26.722 17.3583 25.9322 16.1425L23.3549 12.1748C21.7776 9.74656 18.2228 9.74681 16.6458 12.1753L14.0702 16.1415C13.2803 17.3579 11.7218 17.8172 10.3985 17.2236C8.2428 16.2566 5.88412 18.0967 6.29753 20.4229L7.46462 26.9899Z" fill="#342D4D"/>
</svg>
