<svg width="38" height="38" viewBox="0 0 38 38" fill="none" xmlns="http://www.w3.org/2000/svg">
<path d="M34.9189 12.6039C34.5125 12.9978 33.8651 12.9928 33.4648 12.5925C33.0668 12.1946 33.0592 11.5518 33.4476 11.1445L33.6933 10.8868C34.2183 10.3363 34.208 9.46731 33.6701 8.92938L28.5988 3.85838C28.0608 3.32043 27.1918 3.31011 26.6412 3.83513L26.4109 4.05472C25.9884 4.45763 25.3215 4.44971 24.9087 4.03688C24.4932 3.62142 24.4882 2.94937 24.8974 2.52774L25.8182 1.57902C26.7577 0.610947 28.3079 0.599344 29.2618 1.55325L35.9218 8.2129C36.8763 9.16728 36.8642 10.7184 35.895 11.6578L34.9189 12.6039ZM1.58832 29.2775C0.65893 28.3482 0.658698 26.8414 1.5878 25.9118L2.52669 24.9724C2.93764 24.5612 3.60412 24.5611 4.0152 24.9721C4.42733 25.3843 4.42604 26.0528 4.01232 26.4634L3.81178 26.6624C3.28748 27.1826 3.28578 28.0298 3.80799 28.5522L8.97269 33.7181C9.49512 34.2407 10.3428 34.2391 10.8633 33.7146L11.0627 33.5137C11.4728 33.1004 12.1407 33.0988 12.5527 33.5103C12.964 33.9209 12.9643 34.5873 12.5535 34.9983L11.6147 35.9376C10.6856 36.8673 9.17871 36.8675 8.24931 35.9382L1.58832 29.2775ZM29.4885 20.0003C30.6433 21.155 32.5154 21.155 33.6702 20.0003C34.8251 18.8455 34.8251 16.9731 33.6702 15.8183L21.7072 3.85591C20.5524 2.7012 18.6802 2.7012 17.5255 3.85591C16.3706 5.0107 16.3706 6.88306 17.5255 8.03785L29.4885 20.0003ZM15.7238 33.712C16.8925 34.8806 18.7877 34.8792 19.9546 33.7089C21.1192 32.5409 21.1178 30.6504 19.9515 29.4841L8.04069 17.5739C6.87445 16.4078 4.9841 16.4064 3.81614 17.5708C2.64564 18.7378 2.64424 20.6331 3.81301 21.8018L15.7238 33.712ZM15.461 22.0664C16.4699 23.0747 18.1049 23.075 19.1141 22.0671L22.0018 19.1833C23.0134 18.173 23.0139 16.5338 22.0029 15.5229C20.9919 14.512 19.3527 14.5126 18.3425 15.5244L15.459 18.4123C14.4508 19.422 14.4517 21.0578 15.461 22.0664ZM22.9057 29.5014C24.0839 30.6773 24.0796 32.5876 22.896 33.758L19.9621 36.6595C18.7886 37.82 16.8982 37.8147 15.7312 36.6477L0.878512 21.7941C-0.288316 20.6272 -0.293641 18.737 0.866596 17.5635L3.76696 14.6302C4.93736 13.4464 6.84772 13.442 8.02365 14.6202L10.0231 16.6236C11.1944 17.7971 13.0954 17.798 14.2678 16.6257L16.5762 14.3174C17.746 13.1476 17.7481 11.2516 16.5808 10.0793L14.5784 8.06825C13.4111 6.89592 13.4131 4.9999 14.583 3.83011L17.5348 0.878477C18.7063 -0.293022 20.6057 -0.293021 21.7773 0.878478L36.6478 15.7482C37.8195 16.9198 37.8195 18.8194 36.6478 19.991L33.6957 22.943C32.526 24.1125 30.6305 24.1147 29.4581 22.9479L27.4462 20.9455C26.2739 19.7788 24.3786 19.7809 23.2089 20.9501L20.9009 23.2573C19.7281 24.4297 19.7289 26.3312 20.9027 27.5025L22.9057 29.5014Z" fill="#342D4D"/>
</svg>
