<svg width="42" height="42" viewBox="0 0 42 42" fill="none" xmlns="http://www.w3.org/2000/svg">
<path fill-rule="evenodd" clip-rule="evenodd" d="M3.5 0C2.57174 0 1.6815 0.368749 1.02513 1.02513C0.368749 1.6815 0 2.57174 0 3.5V38.5C0 39.4283 0.368749 40.3185 1.02513 40.9749C1.6815 41.6312 2.57174 42 3.5 42H38.5C39.4283 42 40.3185 41.6312 40.9749 40.9749C41.6312 40.3185 42 39.4283 42 38.5V3.5C42 2.57174 41.6312 1.6815 40.9749 1.02513C40.3185 0.368749 39.4283 0 38.5 0H3.5ZM30.3333 11.6667H26.8333V30.3333H30.3333V11.6667ZM32.6667 15.1667H36.1667V19.8333H37.3333V22.1667H36.1667V26.8333H32.6667V15.1667ZM11.6667 30.3333H15.1667V11.6667H11.6667V30.3333ZM9.33333 26.8333H5.83333V22.1667H4.66667V19.8333H5.83333V15.1667H9.33333V26.8333ZM17.5 22.1667H24.5V19.8333H17.5V22.1667Z" fill="white"/>
</svg>
